<?xml version="1.0" encoding="UTF-8"?>
<svg xmlns="http://www.w3.org/2000/svg" xmlns:xlink="http://www.w3.org/1999/xlink" width="19px" height="19px" viewBox="0 0 19 19" version="1.1">
<g id="surface1">
<path style=" stroke:none;fill-rule:nonzero;fill:rgb(12.156863%,14.901961%,22.745098%);fill-opacity:1;" d="M 5.519531 8 C 4.96875 8.25 5.105469 9.746094 5.824219 11.335938 C 6.546875 12.929688 7.582031 14.015625 8.136719 13.765625 C 8.6875 13.515625 8.898438 11.863281 8.175781 10.269531 C 7.453125 8.679688 6.074219 7.75 5.519531 8 Z M 8.242188 11.15625 C 8.246094 11.175781 8.25 11.191406 8.253906 11.210938 C 8.257812 11.246094 8.265625 11.285156 8.273438 11.320312 C 8.28125 11.355469 8.285156 11.390625 8.289062 11.425781 C 8.292969 11.460938 8.300781 11.496094 8.304688 11.53125 C 8.304688 11.550781 8.308594 11.566406 8.308594 11.582031 C 8.3125 11.601562 8.316406 11.617188 8.316406 11.632812 C 8.316406 11.667969 8.320312 11.699219 8.324219 11.734375 C 8.324219 11.765625 8.328125 11.796875 8.328125 11.828125 C 8.332031 11.84375 8.332031 11.859375 8.332031 11.875 C 8.332031 11.890625 8.332031 11.90625 8.332031 11.921875 C 8.332031 11.980469 8.332031 12.039062 8.335938 12.09375 C 8.335938 12.148438 8.332031 12.203125 8.328125 12.25 C 8.324219 12.347656 8.320312 12.433594 8.308594 12.503906 C 8.300781 12.574219 8.292969 12.628906 8.289062 12.664062 C 8.285156 12.703125 8.28125 12.722656 8.28125 12.722656 C 8.28125 12.722656 8.28125 12.703125 8.28125 12.664062 C 8.277344 12.628906 8.277344 12.570312 8.273438 12.503906 C 8.273438 12.433594 8.265625 12.347656 8.261719 12.25 C 8.257812 12.15625 8.242188 12.046875 8.230469 11.929688 C 8.230469 11.914062 8.226562 11.898438 8.226562 11.882812 C 8.222656 11.871094 8.222656 11.855469 8.21875 11.839844 C 8.214844 11.808594 8.210938 11.777344 8.203125 11.746094 C 8.199219 11.714844 8.195312 11.683594 8.191406 11.648438 C 8.1875 11.632812 8.183594 11.617188 8.183594 11.601562 C 8.179688 11.585938 8.175781 11.570312 8.171875 11.550781 C 8.164062 11.519531 8.160156 11.484375 8.152344 11.453125 C 8.144531 11.417969 8.140625 11.382812 8.128906 11.347656 C 8.113281 11.28125 8.097656 11.210938 8.078125 11.136719 C 8.054688 11.066406 8.035156 10.996094 8.011719 10.925781 C 8 10.890625 7.988281 10.851562 7.976562 10.816406 C 7.96875 10.800781 7.964844 10.78125 7.957031 10.761719 L 7.949219 10.734375 L 7.9375 10.707031 C 7.878906 10.566406 7.820312 10.421875 7.75 10.285156 L 7.695312 10.179688 C 7.675781 10.144531 7.65625 10.113281 7.636719 10.078125 C 7.601562 10.007812 7.558594 9.945312 7.515625 9.878906 C 7.507812 9.863281 7.496094 9.847656 7.484375 9.832031 C 7.472656 9.816406 7.464844 9.800781 7.453125 9.785156 C 7.441406 9.769531 7.429688 9.753906 7.421875 9.738281 C 7.410156 9.722656 7.398438 9.707031 7.386719 9.691406 C 7.34375 9.632812 7.296875 9.570312 7.25 9.515625 C 7.160156 9.398438 7.0625 9.292969 6.972656 9.195312 C 6.925781 9.148438 6.878906 9.101562 6.832031 9.058594 C 6.785156 9.015625 6.738281 8.972656 6.695312 8.933594 C 6.671875 8.914062 6.652344 8.894531 6.628906 8.878906 C 6.609375 8.859375 6.585938 8.839844 6.566406 8.824219 C 6.542969 8.808594 6.523438 8.792969 6.503906 8.773438 C 6.484375 8.757812 6.464844 8.746094 6.445312 8.730469 C 6.367188 8.671875 6.300781 8.621094 6.242188 8.585938 C 6.183594 8.546875 6.136719 8.515625 6.105469 8.496094 C 6.074219 8.476562 6.054688 8.46875 6.054688 8.46875 C 6.054688 8.46875 6.074219 8.472656 6.109375 8.488281 C 6.144531 8.503906 6.195312 8.523438 6.257812 8.554688 C 6.289062 8.570312 6.324219 8.585938 6.363281 8.605469 C 6.382812 8.617188 6.402344 8.625 6.421875 8.636719 C 6.441406 8.648438 6.460938 8.660156 6.484375 8.671875 C 6.566406 8.722656 6.660156 8.785156 6.757812 8.855469 C 6.855469 8.925781 6.960938 9.007812 7.0625 9.101562 C 7.164062 9.195312 7.273438 9.296875 7.371094 9.414062 C 7.421875 9.46875 7.46875 9.53125 7.519531 9.59375 C 7.53125 9.605469 7.542969 9.621094 7.554688 9.640625 C 7.566406 9.65625 7.578125 9.671875 7.589844 9.6875 C 7.601562 9.703125 7.613281 9.71875 7.625 9.734375 C 7.636719 9.75 7.648438 9.769531 7.660156 9.785156 C 7.703125 9.851562 7.75 9.917969 7.789062 9.988281 C 7.808594 10.023438 7.828125 10.058594 7.851562 10.09375 L 7.90625 10.203125 C 7.980469 10.347656 8.042969 10.5 8.097656 10.648438 C 8.125 10.722656 8.148438 10.800781 8.171875 10.875 C 8.191406 10.949219 8.210938 11.027344 8.230469 11.101562 C 8.234375 11.117188 8.238281 11.136719 8.242188 11.15625 Z M 8.242188 11.15625 "/>
<path style=" stroke:none;fill-rule:nonzero;fill:rgb(12.156863%,14.901961%,22.745098%);fill-opacity:1;" d="M 3.667969 12.3125 C 2.941406 10.707031 2.492188 9.117188 2.328125 7.734375 C 2.308594 7.589844 2.148438 7.507812 2.023438 7.582031 C 1.96875 7.617188 1.917969 7.660156 1.875 7.714844 L 0.191406 9.871094 C 0.15625 9.917969 0.140625 9.980469 0.152344 10.039062 C 0.367188 11.058594 0.730469 12.179688 1.246094 13.316406 C 1.820312 14.578125 2.5 15.695312 3.207031 16.578125 C 3.246094 16.625 3.300781 16.652344 3.359375 16.652344 L 6.109375 16.714844 C 6.109375 16.714844 6.113281 16.714844 6.113281 16.714844 C 6.289062 16.71875 6.382812 16.507812 6.261719 16.378906 C 5.320312 15.339844 4.40625 13.941406 3.667969 12.3125 Z M 1.808594 8.410156 C 1.753906 8.492188 1.695312 8.570312 1.636719 8.648438 C 1.609375 8.6875 1.582031 8.730469 1.550781 8.769531 L 1.464844 8.886719 C 1.40625 8.964844 1.347656 9.042969 1.289062 9.121094 C 1.171875 9.277344 1.050781 9.433594 0.933594 9.589844 L 0.75 9.820312 L 0.59375 10.019531 C 0.601562 10.0625 0.609375 10.109375 0.617188 10.15625 C 0.621094 10.183594 0.628906 10.214844 0.636719 10.242188 C 0.640625 10.269531 0.648438 10.300781 0.652344 10.328125 C 0.667969 10.386719 0.679688 10.445312 0.691406 10.503906 C 0.707031 10.5625 0.71875 10.621094 0.734375 10.675781 C 0.75 10.734375 0.761719 10.792969 0.777344 10.851562 C 0.792969 10.90625 0.808594 10.964844 0.824219 11.023438 L 0.925781 11.367188 C 0.941406 11.421875 0.960938 11.480469 0.976562 11.535156 C 0.996094 11.59375 1.011719 11.652344 1.035156 11.707031 L 1.089844 11.878906 C 1.109375 11.933594 1.128906 11.992188 1.148438 12.046875 C 1.171875 12.101562 1.1875 12.160156 1.210938 12.214844 L 1.273438 12.386719 C 1.292969 12.441406 1.316406 12.496094 1.335938 12.554688 C 1.359375 12.609375 1.378906 12.664062 1.402344 12.722656 C 1.371094 12.671875 1.339844 12.617188 1.308594 12.566406 C 1.28125 12.511719 1.25 12.460938 1.222656 12.40625 L 1.140625 12.246094 C 1.113281 12.191406 1.089844 12.136719 1.0625 12.082031 C 1.039062 12.027344 1.011719 11.972656 0.988281 11.917969 L 0.917969 11.75 C 0.894531 11.695312 0.871094 11.636719 0.851562 11.582031 C 0.828125 11.527344 0.804688 11.46875 0.785156 11.414062 L 0.726562 11.242188 C 0.707031 11.183594 0.6875 11.125 0.667969 11.070312 C 0.648438 11.011719 0.632812 10.953125 0.617188 10.894531 C 0.597656 10.835938 0.582031 10.777344 0.566406 10.71875 C 0.550781 10.660156 0.535156 10.601562 0.523438 10.542969 C 0.507812 10.484375 0.492188 10.425781 0.480469 10.367188 C 0.46875 10.308594 0.453125 10.25 0.445312 10.1875 C 0.4375 10.160156 0.433594 10.128906 0.429688 10.097656 C 0.421875 10.066406 0.417969 10.039062 0.414062 10.007812 L 0.40625 9.96875 L 0.433594 9.9375 L 0.617188 9.710938 L 0.804688 9.488281 C 0.933594 9.335938 1.058594 9.1875 1.1875 9.039062 C 1.25 8.964844 1.316406 8.890625 1.378906 8.820312 L 1.476562 8.707031 C 1.511719 8.671875 1.542969 8.636719 1.578125 8.597656 C 1.640625 8.527344 1.707031 8.453125 1.773438 8.382812 C 1.839844 8.308594 1.90625 8.238281 1.976562 8.167969 C 1.921875 8.25 1.867188 8.328125 1.808594 8.410156 Z M 1.808594 8.410156 "/>
<path style=" stroke:none;fill-rule:nonzero;fill:rgb(12.156863%,14.901961%,22.745098%);fill-opacity:1;" d="M 3.894531 3.335938 C 2.082031 4.164062 2.121094 8.140625 3.980469 12.210938 C 5.84375 16.285156 8.824219 18.914062 10.640625 18.085938 C 12.453125 17.253906 12.414062 13.28125 10.550781 9.207031 C 8.6875 5.136719 5.707031 2.503906 3.894531 3.335938 Z M 5.175781 11.707031 C 4.734375 10.734375 4.398438 9.773438 4.175781 8.875 C 3.964844 7.410156 4.195312 6.285156 4.890625 5.976562 C 6.019531 5.472656 7.9375 7.304688 9.175781 10.074219 C 10.414062 12.84375 10.503906 15.496094 9.375 16 C 8.847656 16.234375 8.152344 15.960938 7.429688 15.324219 C 6.621094 14.386719 5.832031 13.144531 5.175781 11.707031 Z M 10.816406 17.058594 C 9.992188 17.433594 8.835938 16.84375 7.6875 15.613281 C 8.59375 16.414062 9.484375 16.753906 10.160156 16.449219 C 11.527344 15.824219 11.484375 12.789062 10.0625 9.660156 C 8.640625 6.535156 6.378906 4.507812 5.011719 5.128906 C 4.164062 5.511719 3.863281 6.820312 4.089844 8.503906 C 3.585938 6.222656 3.824219 4.40625 4.839844 3.941406 C 6.304688 3.273438 8.832031 5.671875 10.480469 9.292969 C 12.128906 12.914062 12.277344 16.390625 10.816406 17.058594 Z M 10.816406 17.058594 "/>
<path style=" stroke:none;fill-rule:nonzero;fill:rgb(12.156863%,14.901961%,22.745098%);fill-opacity:1;" d="M 18.078125 6.851562 C 17.003906 4.128906 14.910156 1.960938 12.222656 0.796875 C 12.011719 0.703125 11.765625 0.800781 11.671875 1.011719 C 11.582031 1.226562 11.679688 1.46875 11.890625 1.5625 C 14.375 2.640625 16.308594 4.640625 17.304688 7.160156 C 18.296875 9.675781 18.25 12.460938 17.175781 14.945312 C 17.082031 15.15625 17.179688 15.402344 17.390625 15.492188 C 17.601562 15.585938 17.847656 15.488281 17.941406 15.277344 C 19.105469 12.589844 19.15625 9.578125 18.078125 6.851562 Z M 18.078125 6.851562 "/>
<path style=" stroke:none;fill-rule:nonzero;fill:rgb(12.156863%,14.901961%,22.745098%);fill-opacity:1;" d="M 11.59375 3.003906 C 11.382812 2.914062 11.136719 3.011719 11.046875 3.222656 C 10.953125 3.433594 11.050781 3.679688 11.261719 3.769531 C 13.117188 4.574219 14.5625 6.066406 15.304688 7.949219 C 16.046875 9.828125 16.011719 11.90625 15.207031 13.761719 C 15.117188 13.972656 15.214844 14.21875 15.425781 14.308594 C 15.636719 14.402344 15.882812 14.304688 15.972656 14.09375 C 16.867188 12.035156 16.90625 9.726562 16.082031 7.640625 C 15.257812 5.554688 13.652344 3.898438 11.59375 3.003906 Z M 11.59375 3.003906 "/>
<path style=" stroke:none;fill-rule:nonzero;fill:rgb(12.156863%,14.901961%,22.745098%);fill-opacity:1;" d="M 11.054688 5.34375 C 10.84375 5.25 10.597656 5.347656 10.503906 5.558594 C 10.414062 5.769531 10.511719 6.015625 10.722656 6.105469 C 11.894531 6.617188 12.808594 7.558594 13.277344 8.75 C 13.746094 9.9375 13.722656 11.25 13.214844 12.421875 C 13.125 12.636719 13.222656 12.878906 13.433594 12.972656 C 13.644531 13.0625 13.890625 12.96875 13.980469 12.753906 C 14.578125 11.378906 14.601562 9.835938 14.050781 8.441406 C 13.5 7.046875 12.429688 5.9375 11.054688 5.34375 Z M 11.054688 5.34375 "/>
</g>
</svg>
